<svg xmlns="http://www.w3.org/2000/svg" xmlns:xlink="http://www.w3.org/1999/xlink" width="458" height="480" viewBox="0 0 458 480">
  <defs>
    <filter id="Rectangle_5" x="6" y="0" width="452" height="480" filterUnits="userSpaceOnUse">
      <feOffset dy="9" input="SourceAlpha"/>
      <feGaussianBlur stdDeviation="9" result="blur"/>
      <feFlood flood-opacity="0.082"/>
      <feComposite operator="in" in2="blur"/>
      <feComposite in="SourceGraphic"/>
    </filter>
  </defs>
  <g id="Group_20" data-name="Group 20" transform="translate(-1211 -294)">
    <g transform="matrix(1, 0, 0, 1, 1211, 294)" filter="url(#Rectangle_5)">
      <rect id="Rectangle_5-2" data-name="Rectangle 5" width="398" height="426" rx="63" transform="translate(33 18)" fill="#fff"/>
    </g>
    <g id="Component_5_1" data-name="Component 5 – 1" transform="translate(1211 375)">
      <g id="Group_5" data-name="Group 5" transform="translate(-1211 -200)">
        <g id="Ellipse_1" data-name="Ellipse 1" transform="translate(1211 394)" fill="#fff" stroke="#d5d5d5" stroke-width="4">
          <circle cx="33" cy="33" r="33" stroke="none"/>
          <circle cx="33" cy="33" r="31" fill="none"/>
        </g>
        <path id="Path_1" data-name="Path 1" d="M1662.955,148.807l10.574,10.574,22.838-22.838" transform="translate(-435.878 277.467)" fill="none" stroke="#fff" stroke-width="7"/>
        <rect id="Rectangle_6" data-name="Rectangle 6" width="256" height="19" rx="9.5" transform="translate(1330 402)" fill="#f9d5a5"/>
        <rect id="Rectangle_7" data-name="Rectangle 7" width="93" height="19" rx="9.5" transform="translate(1330 441)" fill="#f9d5a5"/>
        <rect id="Rectangle_8" data-name="Rectangle 8" width="19" height="19" rx="9.5" transform="translate(1567 441)" fill="#f9d5a5"/>
        <rect id="Rectangle_9" data-name="Rectangle 9" width="19" height="19" rx="9.5" transform="translate(1537 441)" fill="#f9d5a5"/>
      </g>
      <g id="Group_4" data-name="Group 4" transform="translate(-1211 -297)">
        <g id="Ellipse_1-2" data-name="Ellipse 1" transform="translate(1211 394)" fill="#fff" stroke="#d5d5d5" stroke-width="4">
          <circle cx="33" cy="33" r="33" stroke="none"/>
          <circle cx="33" cy="33" r="31" fill="none"/>
        </g>
        <path id="Path_1-2" data-name="Path 1" d="M1662.955,148.807l10.574,10.574,22.838-22.838" transform="translate(-435.878 277.467)" fill="none" stroke="#fff" stroke-width="7"/>
        <rect id="Rectangle_6-2" data-name="Rectangle 6" width="256" height="19" rx="9.5" transform="translate(1330 402)" fill="#e9d5f5"/>
        <rect id="Rectangle_7-2" data-name="Rectangle 7" width="93" height="19" rx="9.5" transform="translate(1330 441)" fill="#e9d5f5"/>
        <rect id="Rectangle_8-2" data-name="Rectangle 8" width="19" height="19" rx="9.5" transform="translate(1567 441)" fill="#e9d5f5"/>
        <rect id="Rectangle_9-2" data-name="Rectangle 9" width="19" height="19" rx="9.5" transform="translate(1537 441)" fill="#e9d5f5"/>
      </g>
      <g id="Group_6" data-name="Group 6" transform="translate(-1211 -394)">
        <circle id="Ellipse_1-3" data-name="Ellipse 1" cx="33" cy="33" r="33" transform="translate(1211 394)" fill="#1fc41f"/>
        <path id="Path_1-3" data-name="Path 1" d="M1662.955,148.807l10.574,10.574,22.838-22.838" transform="translate(-435.878 277.467)" fill="none" stroke="#fff" stroke-width="7"/>
        <rect id="Rectangle_6-3" data-name="Rectangle 6" width="256" height="19" rx="9.5" transform="translate(1330 402)" fill="#b2ddcc"/>
        <rect id="Rectangle_7-3" data-name="Rectangle 7" width="93" height="19" rx="9.5" transform="translate(1330 441)" fill="#b2ddcc"/>
        <rect id="Rectangle_8-3" data-name="Rectangle 8" width="19" height="19" rx="9.5" transform="translate(1567 441)" fill="#b2ddcc"/>
        <rect id="Rectangle_9-3" data-name="Rectangle 9" width="19" height="19" rx="9.5" transform="translate(1537 441)" fill="#b2ddcc"/>
      </g>
    </g>
  </g>
</svg>
